<?xml version="1.0" standalone="no"?>
<!DOCTYPE svg PUBLIC "-//W3C//DTD SVG 20010904//EN"
 "http://www.w3.org/TR/2001/REC-SVG-20010904/DTD/svg10.dtd">
<svg version="1.0" xmlns="http://www.w3.org/2000/svg"
 width="400.000000pt" height="400.000000pt" viewBox="0 0 400.000000 400.000000"
 preserveAspectRatio="xMidYMid meet">
<metadata>
Created by potrace 1.11, written by Peter Selinger 2001-2013
</metadata>
<g transform="translate(0.000000,400.000000) scale(0.100000,-0.100000)"
fill="#000000" stroke="none">
<path d="M1940 2921 c-209 -57 -378 -176 -491 -348 -39 -59 -42 -61 -67 -51
-43 18 -269 15 -322 -4 -65 -24 -130 -57 -167 -84 -17 -13 -34 -24 -37 -24
-17 0 -116 -115 -141 -165 -9 -18 -23 -21 -130 -25 -127 -6 -237 -36 -297 -80
-15 -11 -31 -20 -35 -20 -10 0 -143 -137 -161 -165 -22 -35 -64 -128 -78 -175
-18 -60 -18 -261 0 -320 35 -114 89 -202 168 -275 61 -56 113 -88 201 -124 20
-8 413 -11 1425 -11 l1397 1 68 32 c186 90 312 274 330 481 1 22 12 34 46 53
120 67 231 182 283 293 54 115 61 143 65 275 5 131 -4 231 -27 295 -33 89 -61
150 -72 150 -3 0 -9 9 -13 19 -13 42 -151 166 -215 194 -8 4 -22 11 -30 16
-39 23 -111 50 -180 67 -73 18 -274 18 -342 0 -116 -30 -269 -119 -332 -192
-16 -19 -32 -34 -35 -34 -4 0 -18 10 -30 21 -101 94 -247 171 -390 205 -83 20
-310 17 -391 -5z m390 -234 c45 -17 133 -59 140 -66 3 -4 23 -19 45 -35 46
-34 56 -44 111 -111 95 -117 144 -294 129 -467 l-7 -81 24 8 c159 49 202 57
278 50 82 -8 149 -41 215 -108 80 -81 99 -130 99 -257 0 -88 -3 -112 -22 -150
-35 -72 -100 -134 -182 -177 l-75 -38 -1275 0 c-1379 0 -1314 -2 -1404 53 -43
26 -78 60 -117 112 -44 61 -54 98 -53 205 0 98 8 127 47 190 17 28 99 110 117
118 8 4 22 11 30 16 85 50 250 48 352 -5 52 -27 61 -20 87 64 23 73 64 153 82
160 5 2 9 10 9 18 0 8 4 14 8 14 5 0 17 8 28 18 54 50 163 92 237 92 62 0 136
-27 229 -81 27 -16 55 -29 62 -29 7 0 19 19 26 43 19 60 81 188 105 216 65 78
84 97 130 131 69 51 185 104 250 114 56 8 260 -3 295 -17z m1157 -13 c37 -15
74 -33 81 -41 7 -7 17 -13 21 -13 5 0 29 -20 54 -43 49 -48 93 -125 113 -202
17 -62 18 -214 2 -269 -26 -89 -96 -194 -162 -242 l-29 -21 -28 56 c-16 31
-40 68 -54 83 -14 15 -25 30 -25 33 0 7 -72 72 -117 104 -83 59 -207 101 -300
101 -55 0 -63 2 -63 19 0 10 -18 73 -41 141 -39 118 -40 123 -23 143 51 63
175 157 207 157 7 0 17 4 23 9 14 15 70 19 176 16 77 -3 112 -10 165 -31z"/>
<path d="M2030 1921 l0 -151 45 0 44 0 3 73 c3 64 5 72 23 72 18 0 20 -8 23
-73 l3 -73 42 3 42 3 3 57 c4 73 -13 134 -40 149 -11 6 -38 9 -59 6 l-38 -5
-3 42 c-3 41 -3 41 -45 44 l-43 3 0 -150z"/>
<path d="M930 2038 c0 -7 11 -60 25 -118 14 -58 27 -115 30 -127 5 -20 12 -23
59 -23 l53 0 13 73 c15 78 13 80 40 -31 l11 -43 52 3 52 3 31 135 31 135 -45
3 c-24 2 -46 1 -48 -1 -3 -3 -10 -35 -17 -73 l-13 -68 -13 72 -13 72 -48 0
-49 0 -11 -57 c-6 -32 -12 -62 -14 -68 -2 -5 -8 20 -15 58 l-13 67 -49 0 c-33
0 -49 -4 -49 -12z"/>
<path d="M1884 2020 c-5 -21 -12 -30 -25 -30 -14 0 -19 -7 -19 -30 0 -20 5
-30 15 -30 12 0 15 -14 15 -64 0 -81 13 -96 81 -96 48 0 49 1 49 30 0 23 -4
30 -20 30 -17 0 -20 7 -20 50 0 43 3 50 20 50 16 0 20 7 20 30 0 23 -4 30 -20
30 -16 0 -20 7 -20 30 0 28 -3 30 -35 30 -31 0 -36 -3 -41 -30z"/>
<path d="M1359 1962 c-27 -24 -31 -35 -32 -81 -1 -48 2 -57 31 -82 27 -24 41
-29 85 -29 28 0 62 3 75 6 32 9 51 52 48 109 -2 40 -8 53 -35 77 -26 23 -40
28 -86 28 -46 0 -60 -5 -86 -28z m116 -42 c4 -6 -7 -10 -24 -10 -17 0 -31 5
-31 10 0 6 11 10 24 10 14 0 28 -4 31 -10z m5 -74 c0 -18 -32 -26 -54 -14 -27
15 -18 28 19 28 23 0 35 -5 35 -14z"/>
<path d="M1633 1980 c-25 -10 -47 -46 -38 -60 8 -13 85 -13 85 0 0 12 37 13
44 1 3 -5 -16 -12 -42 -16 -70 -10 -92 -28 -92 -75 0 -29 5 -42 19 -50 25 -13
108 -13 116 0 4 7 12 7 25 0 10 -5 35 -10 54 -10 33 0 36 2 36 30 0 17 -4 30
-9 30 -5 0 -11 27 -13 60 -6 79 -20 93 -100 97 -35 2 -73 -1 -85 -7z m97 -130
c0 -13 -32 -28 -48 -23 -10 4 -10 8 -1 19 13 16 49 19 49 4z"/>
<path d="M2319 1962 c-27 -24 -31 -35 -32 -81 -1 -48 2 -57 31 -82 27 -24 41
-29 87 -29 93 0 113 15 122 92 5 47 -19 101 -53 117 -14 6 -47 11 -74 11 -40
0 -56 -5 -81 -28z m116 -42 c4 -6 -7 -10 -24 -10 -17 0 -31 5 -31 10 0 6 11
10 24 10 14 0 28 -4 31 -10z m5 -74 c0 -18 -32 -26 -54 -14 -27 15 -18 28 19
28 23 0 35 -5 35 -14z"/>
<path d="M2560 1880 l0 -110 40 0 40 0 0 44 c0 69 14 96 50 96 28 0 30 2 30
40 0 39 -1 40 -33 40 -18 0 -38 -5 -45 -12 -9 -9 -12 -9 -12 0 0 7 -14 12 -35
12 l-35 0 0 -110z"/>
<path d="M1750 1450 l0 -140 45 0 45 0 0 58 0 57 53 -58 c48 -53 55 -58 95
-57 l42 0 0 140 0 140 -45 0 -45 0 0 -62 -1 -63 -55 63 c-51 56 -60 62 -95 62
l-39 0 0 -140z"/>
<path d="M2364 1560 c-5 -21 -12 -30 -25 -30 -14 0 -19 -7 -19 -30 0 -18 6
-33 15 -36 11 -5 15 -22 15 -63 0 -67 6 -78 50 -91 51 -15 80 -4 80 31 0 22
-5 29 -20 29 -17 0 -20 7 -20 45 0 38 3 45 20 45 16 0 20 7 20 35 0 28 -4 35
-20 35 -16 0 -20 7 -20 30 0 28 -3 30 -35 30 -31 0 -36 -3 -41 -30z"/>
<path d="M1209 1515 c-69 -37 -62 -165 10 -195 66 -27 162 -4 176 41 11 32 8
95 -5 118 -25 47 -125 67 -181 36z m100 -59 c16 -20 10 -66 -10 -79 -27 -17
-49 -1 -49 36 0 50 33 74 59 43z"/>
<path d="M1430 1420 l0 -110 45 0 45 0 0 51 c0 63 13 89 45 89 22 0 25 4 25
40 0 37 -2 40 -28 40 -15 0 -33 -5 -40 -12 -9 -9 -12 -9 -12 0 0 7 -16 12 -40
12 l-40 0 0 -110z"/>
<path d="M2100 1503 c-36 -33 -49 -88 -30 -133 27 -65 138 -85 204 -37 24 17
36 80 24 123 -20 74 -137 101 -198 47z m109 -47 c16 -20 10 -66 -10 -79 -27
-17 -49 -1 -49 36 0 50 33 74 59 43z"/>
</g>
</svg>
